OpenSim_Sub04_CSBaseline_LCS.mot
version=1
nRows=44
nColumns=11
inDegrees=no
endheader
time	Bot_Shank	2nd_Bot_Shank	2nd_Top_Shank	Top_Shank	Bot_Thigh	Med_Thigh	Top_Thigh	BNOx	BNOy	BNOZ
40.41000000	10060.17587706	10476.27798341	10966.82538178	11217.57302237	13200.35445188	14145.70745858	14956.45794534	154.67328895	-59.07111888	-74.52170904
40.42000000	10064.39277466	10484.86701696	10983.60338567	11232.49801117	13191.91339660	14143.77566824	14955.83769301	154.82412767	-59.89806752	-81.58904671
40.43000000	10067.90906395	10493.54034904	10998.58475308	11247.45286331	13178.18263560	14141.17563795	14953.00267224	154.96204362	-60.84007041	-91.42467997
40.44000000	10070.70499230	10501.97536036	11011.44534216	11261.88558228	13159.88085713	14138.04637967	14948.23342469	155.13262669	-61.88559230	-103.14302993
40.45000000	10072.82019308	10509.82337861	11021.88920797	11275.11587286	13137.91888555	14134.55837988	14941.91469365	155.39127338	-63.02322486	-115.68001342
40.46000000	10074.29429965	10516.73573144	11029.62040558	11286.46343981	13113.20754523	14130.88212507	14934.43122238	155.79338024	-64.24155977	-127.97154728
40.47000000	10075.16694536	10522.36374651	11034.34299004	11295.24798792	13086.65766054	14127.18810172	14926.16775414	156.39434377	-65.52918871	-138.95354837
40.48000000	10075.47776359	10526.35875149	11035.76101642	11300.78922194	13059.18005585	14123.64679634	14917.50903220	157.24956051	-66.87470335	-147.56193351
40.49000000	10075.26638768	10528.37207403	11033.57853980	11302.40684666	13031.68555553	14120.42869539	14908.83979983	158.41442698	-68.26669537	-152.73261956
40.50000000	10074.57245099	10528.05504180	11027.49961523	11299.42056685	13005.08498395	14117.70428538	14900.54480030	159.94433970	-69.69375645	-153.40152335
40.51000000	10073.43558690	10525.05898246	11017.22829777	11291.15008727	12980.28916547	14115.64405278	14893.00877687	161.89469519	-71.14447827	-148.50456172
40.52000000	10071.89542874	10519.03522367	11002.46864250	11276.91511271	12958.20892448	14114.41848410	14886.61647282	164.32088998	-72.60745249	-136.97765153
40.53000000	10069.99160989	10509.63509309	10982.92470447	11256.03534794	12939.75508532	14114.19806580	14881.75263141	167.27832060	-74.07127080	-117.75670960
40.54000000	10067.76379056	10496.51032228	10958.30110295	11227.83115547	12925.83821288	14115.15319860	14878.80189295	170.82234505	-75.52450677	-89.77844531
40.55000000	10065.28726773	10479.84860849	10929.05115430	11192.49573453	12917.02451452	14117.34044743	14878.01228623	174.95723487	-76.93169725	-53.03125246
40.56000000	10062.74322820	10461.43019819	10897.85282638	11152.81579984	12912.85698614	14120.47812970	14879.22591741	179.53546495	-78.18595738	-10.62846211
40.57000000	10060.33243617	10443.32977564	10867.79539090	11112.05756723	12912.68944758	14124.22202608	14882.20984379	184.38144530	-79.16719749	33.73884189
40.58000000	10058.25565583	10427.62202514	10841.96811955	11073.48725251	12915.87571869	14128.22791723	14886.73112269	189.31958597	-79.75532790	76.37957569
40.59000000	10056.71365138	10416.38163096	10823.46028403	11040.37107150	12921.76961931	14132.15158382	14892.55681142	194.17429699	-79.83025895	113.60265545
40.60000000	10055.90661876	10411.67830619	10815.35356606	11015.96872202	12929.72542116	14135.64934242	14899.45390622	198.77021431	-79.27227444	141.72449994
40.61000000	10055.91428299	10414.52787233	10819.12056989	11002.15808543	12939.19318981	14138.49112684	14907.17645522	202.97986904	-78.04083108	158.65208382
40.62000000	10056.54758259	10423.59477949	10832.64383549	10997.73402807	12949.83671966	14140.70036581	14915.44961757	206.78265270	-76.27203088	165.84112197
40.63000000	10057.58108751	10437.22532182	10853.32014360	11001.07426412	12961.34872401	14142.33478761	14923.99464358	210.17241573	-74.12587710	165.22749712
40.64000000	10058.78936769	10453.76579350	10878.54627495	11010.55650780	12973.42191616	14143.45212053	14932.53278355	213.14300856	-71.76237300	158.74709197
40.65000000	10059.94699308	10471.56248866	10905.71901028	11024.55847329	12985.74900941	14144.11009285	14940.78528777	215.68828163	-69.34152184	148.33578923
40.66000000	10060.82853361	10488.96170148	10932.23513033	11041.45787480	12998.02271707	14144.36643283	14948.47340656	217.80208537	-67.02332688	135.92947161
40.67000000	10061.20855924	10504.30972611	10955.49141582	11059.63242653	13009.93575243	14144.27886876	14955.31839019	219.47827022	-64.96779139	123.46402182
40.68000000	10060.86234335	10515.95603456	10972.88949391	11077.46176173	13021.18146022	14143.90517601	14961.04207510	220.71076995	-63.33462258	112.87218255
40.69000000	10059.71429170	10522.92380026	10982.85842814	11093.73235684	13031.58704731	14143.31311207	14965.49055446	221.51118369	-62.22076707	105.42101385
40.70000000	10058.02154404	10525.73931361	10986.11962850	11108.13840903	13041.27838472	14142.59270585	14968.78715466	221.93052435	-61.58314426	100.89234982
40.71000000	10056.08626119	10525.13224658	10983.70467442	11120.49693610	13050.42175466	14141.83699976	14971.09271359	222.02513779	-61.35972696	98.86706379
40.72000000	10054.21060399	10521.83227111	10976.64514537	11130.62495580	13059.18343937	14141.13903620	14972.56806913	221.85136987	-61.48848797	98.92602907
40.73000000	10052.69673326	10516.56905918	10965.97262080	11138.33948591	13067.72972107	14140.59185756	14973.37405915	221.46556643	-61.90740011	100.65011897
40.74000000	10051.84680984	10510.07228275	10952.71868015	11143.45754419	13076.22688197	14140.28850625	14973.67152154	220.92407333	-62.55443618	103.62020680
40.75000000	10051.96299455	10503.07161377	10937.91490288	11145.79614843	13084.84120431	14140.32202465	14973.62129416	220.28323643	-63.36756898	107.41716589
40.76000000	10053.34744822	10496.29672420	10922.59286844	11145.17231638	13093.73897032	14140.78545518	14973.38421490	219.59940158	-64.28477133	111.62186953
40.77000000	10056.30233169	10490.47728601	10907.78415629	11141.40306583	13103.08646220	14141.77184022	14973.12112164	218.92891464	-65.24401602	115.81519105
40.78000000	10061.12894694	10486.34168838	10894.51917661	11134.30714929	13113.04932457	14143.37390964	14972.99257082	218.32799688	-66.18336895	119.57868551
40.79000000	10067.94651972	10484.34637436	10883.58045577	11124.07108665	13123.65802605	14145.61813500	14973.09945677	217.82645705	-67.06062820	122.63843941
40.80000000	10076.46803969	10484.34103913	10875.19745859	11111.70193541	13134.64143980	14148.38315686	14973.40955965	217.39517414	-67.87761700	125.04300801
40.81000000	10086.35153011	10486.09328095	10869.52481706	11098.31777714	13145.68763114	14151.52761326	14973.87264843	216.99705354	-68.64211548	126.88457866
40.82000000	10097.25501422	10489.37069806	10866.71716315	11085.03669343	13156.48466539	14154.91014227	14974.43849209	216.59500064	-69.36190376	128.25533874
40.83000000	10108.83651530	10493.94088870	10866.92912882	11072.97676589	13166.72060786	14158.38938194	14975.05685959	216.15192083	-70.04476196	129.24747563
40.84000000	10120.75405658	10499.57145111	10870.31534606	11063.25607610	13176.08352388	14161.82397031	14975.67751991	215.63071950	-70.69847021	129.95317669
